<mxfile host="app.diagrams.net" modified="2021-06-02T15:05:51.883Z" agent="5.0 (Macintosh; Intel Mac OS X 10_15_7) AppleWebKit/537.36 (KHTML, like Gecko) Chrome/91.0.4472.77 Safari/537.36" etag="8mvwK1UGdU_4BOPIclE0" version="14.7.3" type="github">
  <diagram name="Page-1" id="03018318-947c-dd8e-b7a3-06fadd420f32">
    <mxGraphModel dx="946" dy="557" grid="1" gridSize="10" guides="1" tooltips="1" connect="1" arrows="1" fold="1" page="1" pageScale="1" pageWidth="1100" pageHeight="850" background="none" math="0" shadow="0">
      <root>
        <mxCell id="0" />
        <mxCell id="1" parent="0" />
        <mxCell id="677b7b8949515195-1" value="" style="whiteSpace=wrap;html=1;rounded=0;shadow=0;labelBackgroundColor=none;strokeColor=#000000;strokeWidth=1;fillColor=none;fontFamily=Verdana;fontSize=12;fontColor=#000000;align=center;comic=1;" parent="1" vertex="1">
          <mxGeometry x="20" y="40" width="1060" height="810" as="geometry" />
        </mxCell>
        <mxCell id="677b7b8949515195-2" value="LOGO" style="whiteSpace=wrap;html=1;rounded=0;shadow=0;labelBackgroundColor=none;strokeWidth=1;fontFamily=Verdana;fontSize=28;align=center;comic=1;" parent="1" vertex="1">
          <mxGeometry x="40" y="60" width="190" height="50" as="geometry" />
        </mxCell>
        <mxCell id="677b7b8949515195-3" value="Search" style="strokeWidth=1;shadow=0;dashed=0;align=center;html=1;shape=mxgraph.mockup.forms.searchBox;strokeColor=#999999;mainText=;strokeColor2=#008cff;fontColor=#666666;fontSize=17;align=left;spacingLeft=3;rounded=0;labelBackgroundColor=none;comic=1;" parent="1" vertex="1">
          <mxGeometry x="460" y="230" width="220" height="30" as="geometry" />
        </mxCell>
        <mxCell id="677b7b8949515195-7" value="Topic 4" style="text;html=1;points=[];align=left;verticalAlign=top;spacingTop=-4;fontSize=14;fontFamily=Verdana" parent="1" vertex="1">
          <mxGeometry x="1000" y="40" width="60" height="20" as="geometry" />
        </mxCell>
        <mxCell id="677b7b8949515195-9" value="" style="line;strokeWidth=1;html=1;rounded=0;shadow=0;labelBackgroundColor=none;fillColor=none;fontFamily=Verdana;fontSize=14;fontColor=#000000;align=center;comic=1;" parent="1" vertex="1">
          <mxGeometry x="20" y="275" width="1060" height="10" as="geometry" />
        </mxCell>
        <mxCell id="677b7b8949515195-10" value="" style="whiteSpace=wrap;html=1;rounded=0;shadow=0;labelBackgroundColor=none;strokeWidth=1;fillColor=none;fontFamily=Verdana;fontSize=12;align=center;comic=1;" parent="1" vertex="1">
          <mxGeometry x="30" y="120" width="1040" height="50" as="geometry" />
        </mxCell>
        <mxCell id="677b7b8949515195-11" value="Enter the Postal Code" style="text;html=1;points=[];align=left;verticalAlign=top;spacingTop=-4;fontSize=14;fontFamily=Verdana" parent="1" vertex="1">
          <mxGeometry x="260" y="235" width="60" height="20" as="geometry" />
        </mxCell>
        <mxCell id="677b7b8949515195-27" value="Select an Location Tab" style="text;html=1;points=[];align=left;verticalAlign=top;spacingTop=-4;fontSize=14;fontFamily=Verdana" parent="1" vertex="1">
          <mxGeometry x="440" y="135" width="170" height="20" as="geometry" />
        </mxCell>
        <mxCell id="677b7b8949515195-32" value="Location 3" style="text;html=1;points=[];align=left;verticalAlign=top;spacingTop=-4;fontSize=14;fontFamily=Verdana" parent="1" vertex="1">
          <mxGeometry x="70" y="510" width="170" height="20" as="geometry" />
        </mxCell>
        <mxCell id="677b7b8949515195-35" value="Location 4" style="text;html=1;points=[];align=left;verticalAlign=top;spacingTop=-4;fontSize=14;fontFamily=Verdana" parent="1" vertex="1">
          <mxGeometry x="70" y="630" width="170" height="20" as="geometry" />
        </mxCell>
        <mxCell id="677b7b8949515195-39" value="Location 1&amp;nbsp;" style="text;html=1;points=[];align=left;verticalAlign=top;spacingTop=-4;fontSize=14;fontFamily=Verdana" parent="1" vertex="1">
          <mxGeometry x="70" y="305" width="170" height="65" as="geometry" />
        </mxCell>
        <mxCell id="677b7b8949515195-40" value="Location 2" style="text;html=1;points=[];align=left;verticalAlign=top;spacingTop=-4;fontSize=14;fontFamily=Verdana" parent="1" vertex="1">
          <mxGeometry x="70" y="420" width="170" height="50" as="geometry" />
        </mxCell>
        <mxCell id="MpuQ81uFAPQqHrBwI1l5-3" value="" style="endArrow=none;html=1;" edge="1" parent="1">
          <mxGeometry width="50" height="50" relative="1" as="geometry">
            <mxPoint x="19" y="400" as="sourcePoint" />
            <mxPoint x="430" y="400" as="targetPoint" />
            <Array as="points">
              <mxPoint x="430" y="400" />
              <mxPoint x="1080" y="400" />
            </Array>
          </mxGeometry>
        </mxCell>
        <mxCell id="MpuQ81uFAPQqHrBwI1l5-4" value="" style="endArrow=none;html=1;" edge="1" parent="1">
          <mxGeometry width="50" height="50" relative="1" as="geometry">
            <mxPoint x="20" y="500" as="sourcePoint" />
            <mxPoint x="431" y="500" as="targetPoint" />
            <Array as="points">
              <mxPoint x="431" y="500" />
              <mxPoint x="1081" y="500" />
            </Array>
          </mxGeometry>
        </mxCell>
        <mxCell id="MpuQ81uFAPQqHrBwI1l5-5" value="" style="endArrow=none;html=1;" edge="1" parent="1">
          <mxGeometry width="50" height="50" relative="1" as="geometry">
            <mxPoint x="19" y="607" as="sourcePoint" />
            <mxPoint x="430" y="607" as="targetPoint" />
            <Array as="points">
              <mxPoint x="430" y="607" />
              <mxPoint x="1080" y="607" />
            </Array>
          </mxGeometry>
        </mxCell>
        <mxCell id="MpuQ81uFAPQqHrBwI1l5-7" value="" style="endArrow=none;html=1;" edge="1" parent="1">
          <mxGeometry width="50" height="50" relative="1" as="geometry">
            <mxPoint x="19" y="710" as="sourcePoint" />
            <mxPoint x="430" y="710" as="targetPoint" />
            <Array as="points">
              <mxPoint x="430" y="710" />
              <mxPoint x="1080" y="710" />
            </Array>
          </mxGeometry>
        </mxCell>
        <mxCell id="MpuQ81uFAPQqHrBwI1l5-8" value="" style="whiteSpace=wrap;html=1;rounded=0;shadow=0;labelBackgroundColor=none;strokeWidth=1;fillColor=none;fontFamily=Verdana;fontSize=12;align=center;comic=1;" vertex="1" parent="1">
          <mxGeometry x="30" y="210" width="1040" height="580" as="geometry" />
        </mxCell>
        <mxCell id="MpuQ81uFAPQqHrBwI1l5-9" value="Select Button" style="text;html=1;strokeColor=none;fillColor=none;align=center;verticalAlign=middle;whiteSpace=wrap;rounded=0;" vertex="1" parent="1">
          <mxGeometry x="700" y="310" width="150" height="20" as="geometry" />
        </mxCell>
        <mxCell id="MpuQ81uFAPQqHrBwI1l5-10" value="Select Button" style="text;html=1;strokeColor=none;fillColor=none;align=center;verticalAlign=middle;whiteSpace=wrap;rounded=0;" vertex="1" parent="1">
          <mxGeometry x="700" y="435" width="150" height="20" as="geometry" />
        </mxCell>
        <mxCell id="MpuQ81uFAPQqHrBwI1l5-11" value="Select Button" style="text;html=1;strokeColor=none;fillColor=none;align=center;verticalAlign=middle;whiteSpace=wrap;rounded=0;" vertex="1" parent="1">
          <mxGeometry x="700" y="650" width="150" height="20" as="geometry" />
        </mxCell>
        <mxCell id="MpuQ81uFAPQqHrBwI1l5-12" value="Select Button" style="text;html=1;strokeColor=none;fillColor=none;align=center;verticalAlign=middle;whiteSpace=wrap;rounded=0;" vertex="1" parent="1">
          <mxGeometry x="700" y="530" width="150" height="20" as="geometry" />
        </mxCell>
      </root>
    </mxGraphModel>
  </diagram>
</mxfile>
